<?xml version="1.0" encoding="UTF-8"?>
<svg version="1.1" xmlns="http://www.w3.org/2000/svg" width="512" height="512">
<path d="M0 0 C0.94372971 -0.00671722 1.88745941 -0.01343445 2.85978699 -0.02035522 C5.97583297 -0.03933371 9.09166351 -0.04325946 12.20776367 -0.04541016 C14.37863757 -0.0518385 16.54951061 -0.05856689 18.72038269 -0.06558228 C23.27064014 -0.0775549 27.82082166 -0.08126314 32.37109375 -0.08007812 C38.19173138 -0.07987501 44.01188034 -0.10716945 49.83240223 -0.14162254 C54.31664754 -0.16389932 58.80077544 -0.16791541 63.28507042 -0.16685867 C65.43040335 -0.16921375 67.57573955 -0.17803195 69.72101784 -0.19352341 C72.72711669 -0.21319731 75.73216418 -0.20733933 78.73828125 -0.1953125 C79.61803619 -0.20655151 80.49779114 -0.21779053 81.40420532 -0.22937012 C88.2772792 -0.15976493 93.07704258 1.84760249 98.66479492 5.76318359 C102.88763754 10.17009883 104.62772465 14.84830277 106.34448242 20.56396484 C106.59779327 21.3870665 106.85110413 22.21016815 107.11209106 23.05821228 C110.10422991 32.88702655 112.84865803 42.78805825 115.57006836 52.69458008 C116.45375713 55.90950742 117.34410273 59.12254259 118.23510742 62.33544922 C118.80059776 64.38417079 119.36571661 66.43299495 119.93041992 68.48193359 C120.19595673 69.44007462 120.46149353 70.39821564 120.7350769 71.38539124 C120.97598053 72.26488937 121.21688416 73.14438751 121.46508789 74.05053711 C121.78435745 75.21033836 121.78435745 75.21033836 122.1100769 76.39356995 C122.56323242 78.29052734 122.56323242 78.29052734 122.56323242 80.29052734 C123.23670786 80.28900846 123.9101833 80.28748958 124.60406709 80.28592467 C164.49439416 80.19646786 204.38470831 80.12780922 244.27511533 80.08626603 C249.06174697 80.08126303 253.84837842 80.07608576 258.63500977 80.07080078 C259.58796664 80.06975154 260.54092351 80.0687023 261.52275786 80.06762126 C276.96538559 80.05020246 292.40795393 80.01865667 307.85054639 79.98191616 C323.6888158 79.94454774 339.52705405 79.92230018 355.36536574 79.91417336 C365.14332106 79.90867707 374.92110853 79.89129985 384.69901219 79.85886148 C391.39849033 79.83776415 398.09788134 79.83131642 404.79739031 79.83652183 C408.66626016 79.8390911 412.53483613 79.83507408 416.4036541 79.81370544 C420.59321036 79.79073356 424.78213615 79.79854601 428.97174072 79.80950928 C430.20130186 79.79785791 431.430863 79.78620655 432.69768357 79.77420211 C433.81685096 79.7821663 434.93601834 79.7901305 436.08909988 79.79833603 C437.05662729 79.79681715 438.02415469 79.79529827 439.0210011 79.79373336 C442.30110415 80.43471967 443.4953401 81.72245855 445.56323242 84.29052734 C447.47746339 92.28159391 444.37183561 101.6538175 442.76513672 109.55908203 C442.46379221 111.07773814 442.16326762 112.59655714 441.86349487 114.11552429 C441.05199109 118.21412916 440.22848243 122.31023383 439.40222526 126.40588665 C438.5368973 130.70335338 437.68116265 135.00273174 436.82392883 139.30181885 C435.38392583 146.51542191 433.93598559 153.72739777 432.48339844 160.93847656 C430.80578489 169.26721649 429.14131631 177.59850275 427.48371381 185.93124652 C425.8855786 193.96324056 424.2776803 201.99325108 422.66550636 210.02243805 C421.98088544 213.43312259 421.29976611 216.84447853 420.6214962 220.25643158 C419.82252546 224.27342847 419.01503336 228.2886206 418.20100021 232.30259132 C417.90415443 233.77335304 417.61023007 235.24470796 417.31948662 236.71668816 C416.9212866 238.7301358 416.51242423 240.74113681 416.10087585 242.75189209 C415.87503657 243.87639645 415.64919729 245.0009008 415.4165144 246.15948105 C413.20867222 254.26097185 413.20867222 254.26097185 409.44660759 256.6149044 C405.44905367 257.55159803 401.5214456 257.85049992 397.42922974 258.10049438 C396.50701374 258.16345652 395.58479774 258.22641865 394.63463581 258.29128873 C391.54376154 258.50027122 388.45224488 258.69737038 385.3605957 258.89453125 C383.14459604 259.04190091 380.92864445 259.18999512 378.71273804 259.33876038 C372.69257451 259.74079465 366.67177808 260.13249547 360.65080881 260.52225161 C354.35161927 260.93164222 348.05302999 261.35007099 341.75436401 261.76742554 C331.17424551 262.46717331 320.59374194 263.16079155 310.01293945 263.85009766 C299.13304482 264.5588992 288.25347758 265.27246413 277.37426758 265.99169922 C276.36958324 266.05811845 276.36958324 266.05811845 275.34460224 266.12587948 C272.65210796 266.30388766 269.95961394 266.48189969 267.26712073 266.65992395 C256.26495839 267.38721464 245.26251999 268.1103124 234.26005697 268.83303785 C230.50828159 269.07960715 226.75653749 269.32664866 223.00479507 269.57371902 C217.10676236 269.96183628 211.20857009 270.34743715 205.31024551 270.73109245 C203.14585299 270.87221068 200.98151046 271.01409827 198.8172226 271.15681267 C195.86201744 271.35152571 192.90664111 271.54339721 189.95120239 271.73452759 C189.09564857 271.79152757 188.24009474 271.84852756 187.35861504 271.90725482 C186.5605138 271.95827235 185.76241255 272.00928989 184.94012642 272.06185341 C184.25896047 272.1063357 183.57779452 272.150818 182.87598717 272.19664824 C179.77413228 272.32255842 176.66764173 272.29052734 173.56323242 272.29052734 C173.56323242 282.85052734 173.56323242 293.41052734 173.56323242 304.29052734 C176.84035156 304.2816449 180.1174707 304.27276245 183.49389648 304.26361084 C213.55212751 304.18399915 243.61033501 304.12429164 273.66864687 304.08626603 C277.6089321 304.08126325 281.54921709 304.07608596 285.48950195 304.07080078 C286.27393515 304.06975154 287.05836836 304.0687023 287.86657226 304.06762126 C300.56469746 304.05022041 313.26275016 304.01868449 325.96083236 303.98191616 C338.99216947 303.94449783 352.02346863 303.92228961 365.05485725 303.91417336 C373.09466139 303.90868743 381.13426059 303.89136643 389.17400163 303.85886148 C395.34097045 303.83519969 401.50778332 303.83270976 407.67479134 303.83809662 C410.20315881 303.83699582 412.73153402 303.82903454 415.25985527 303.81370544 C418.71242188 303.79379876 422.16411225 303.79859163 425.61669922 303.80950928 C426.61671589 303.79785791 427.61673256 303.78620655 428.64705276 303.77420211 C435.93193598 303.83644932 441.27555549 305.40951428 446.80541992 310.25537109 C447.34424805 310.90634766 447.88307617 311.55732422 448.43823242 312.22802734 C448.9925293 312.87642578 449.54682617 313.52482422 450.11791992 314.19287109 C454.59735339 320.69410291 454.23786971 327.66193651 453.56323242 335.29052734 C451.56708082 343.19933052 445.07492089 347.9494017 438.56323242 352.29052734 C439.09432617 352.99177734 439.62541992 353.69302734 440.17260742 354.41552734 C448.94981664 366.20389593 454.16817739 377.03067529 454.06323242 391.97802734 C454.05751221 392.93483398 454.05179199 393.89164062 454.04589844 394.87744141 C453.72372264 407.80352493 449.83391205 418.21501721 441.56323242 428.29052734 C440.79237305 429.27666016 440.02151367 430.26279297 439.22729492 431.27880859 C429.7387784 442.58446555 415.67977508 447.49850276 401.46166992 449.09912109 C384.69949432 449.92211368 369.97558387 444.4580871 357.56323242 433.29052734 C346.72871756 421.98807662 340.95347164 408.23629781 341.06323242 392.60302734 C341.06895264 391.6462207 341.07467285 390.68941406 341.08056641 389.70361328 C341.40467398 376.70002468 345.36274465 366.49255597 353.56323242 356.29052734 C355.04823242 354.31052734 355.04823242 354.31052734 356.56323242 352.29052734 C301.78323242 352.29052734 247.00323242 352.29052734 190.56323242 352.29052734 C193.20323242 355.92052734 195.84323242 359.55052734 198.56323242 363.29052734 C206.22964373 376.75854721 208.09145608 392.42918046 204.75463867 407.59521484 C200.12259697 423.01398341 190.24378283 434.97703215 176.32104492 442.93896484 C161.85303241 450.02952055 146.63243466 450.72041954 131.27807617 446.35693359 C116.38628933 441.22734313 105.79933114 431.30468249 98.25073242 417.66552734 C91.30690176 402.86719969 91.08693373 386.80290497 96.26635742 371.39599609 C98.41587187 366.2488154 101.27835689 361.78106048 104.56323242 357.29052734 C105.03631836 356.63310547 105.5094043 355.97568359 105.99682617 355.29833984 C111.07576792 348.82376821 117.9425275 344.23840539 125.56323242 341.29052734 C125.81205282 332.49558706 125.95872989 323.70556817 126.00107574 314.90746403 C126.02343713 310.81402082 126.07133462 306.7256977 126.19750977 302.6340332 C127.04023742 274.0117221 120.66245614 248.94244869 112.32165718 221.70053482 C109.13846265 211.29378516 106.11706951 200.84625655 103.15600586 190.37426758 C102.92474329 189.55680719 102.69348073 188.73934679 102.45521021 187.89711487 C101.50646345 184.54266726 100.55822885 181.18807575 99.6109488 177.83321363 C96.96402242 168.46142562 94.28924894 159.09762495 91.61401367 149.73388672 C90.6316181 146.29406565 89.64940979 142.85419113 88.66723633 139.41430664 C88.4229833 138.55894194 88.17873026 137.70357723 87.92707562 136.82229239 C85.90524981 129.74088141 83.88747603 122.65831973 81.87035668 115.57556695 C79.89573488 108.64283091 77.91809716 101.71095977 75.93813407 94.77974731 C74.76826775 90.68417297 73.59966008 86.58824999 72.43426895 82.49139977 C71.35244832 78.68862365 70.26689936 74.8869322 69.17841721 71.08605766 C68.78116568 69.69644886 68.38526919 68.30645187 67.99082947 66.91604233 C67.45304505 65.02112492 66.90990281 63.12773052 66.3664856 61.23442078 C66.06463915 60.17649165 65.7627927 59.11856253 65.45179939 58.02857494 C63.9992726 53.19089376 63.9992726 53.19089376 60.35017395 50.05648804 C57.1157512 49.16754198 54.3280206 49.03881379 50.97216797 49.03515625 C49.65697678 49.02819733 48.34178558 49.0212384 46.98674011 49.0140686 C45.93943757 49.01509016 45.93943757 49.01509016 44.8709774 49.01613235 C42.67127286 49.01710249 40.47205049 49.00409758 38.27241516 48.9871521 C32.02084078 48.94103316 25.76931691 48.91629092 19.51757812 48.90966797 C15.68607756 48.90463152 11.85508143 48.88027492 8.02375221 48.84434128 C6.57065686 48.83459267 5.11749168 48.83218419 3.6643734 48.83751297 C-5.47670779 48.86945839 -12.49813831 48.61828087 -19.67895508 42.32568359 C-20.2177832 41.67470703 -20.75661133 41.02373047 -21.31176758 40.35302734 C-21.86606445 39.70462891 -22.42036133 39.05623047 -22.99145508 38.38818359 C-27.47088855 31.88695177 -27.11140486 24.91911818 -26.43676758 17.29052734 C-24.75591175 10.63093401 -19.97298436 6.10505287 -14.43676758 2.29052734 C-9.71454198 -0.18977154 -5.20231375 -0.00532297 0 0 Z M127.56323242 96.29052734 C128.83857233 102.66722688 130.15719048 108.83904442 131.91088867 115.07177734 C132.12764755 115.85194214 132.34440643 116.63210693 132.56773376 117.43591309 C133.02064185 119.06306322 133.47528925 120.68973019 133.93164062 122.31591797 C134.63160253 124.81145575 135.32534984 127.30866241 136.01831055 129.80615234 C136.46130961 131.39479453 136.90465617 132.98333986 137.34838867 134.57177734 C137.55569107 135.31754028 137.76299347 136.06330322 137.97657776 136.83166504 C139.03195194 140.64913396 139.03195194 140.64913396 140.56323242 144.29052734 C152.11323242 144.29052734 163.66323242 144.29052734 175.56323242 144.29052734 C172.83490896 128.22373361 169.81140244 112.26069658 166.56323242 96.29052734 C153.69323242 96.29052734 140.82323242 96.29052734 127.56323242 96.29052734 Z M183.56323242 96.29052734 C184.86260742 103.28240234 186.16198242 110.27427734 187.50073242 117.47802734 C187.90928467 119.67740967 188.31783691 121.87679199 188.73876953 124.14282227 C189.06434484 125.89388521 189.38994536 127.64494347 189.71557617 129.39599609 C189.88319458 130.29886353 190.05081299 131.20173096 190.22351074 132.13195801 C190.38581177 133.00437134 190.54811279 133.87678467 190.71533203 134.77563477 C190.85523056 135.52842209 190.99512909 136.28120941 191.13926697 137.05680847 C191.59752787 139.47121751 192.08127431 141.88073681 192.56323242 144.29052734 C206.42323242 144.29052734 220.28323242 144.29052734 234.56323242 144.29052734 C234.01524693 137.93644443 233.46507066 131.58263274 232.90917969 125.22924805 C232.72069304 123.06725267 232.53351182 120.90514307 232.34765625 118.74291992 C232.0804906 115.63738643 231.80865332 112.53229219 231.53588867 109.42724609 C231.45355484 108.45840988 231.37122101 107.48957367 231.28639221 106.49137878 C231.20638474 105.59067154 231.12637726 104.68996429 231.04394531 103.76196289 C230.97510635 102.96920456 230.9062674 102.17644623 230.83534241 101.35966492 C230.60450494 99.09795661 230.60450494 99.09795661 229.56323242 96.29052734 C214.38323242 96.29052734 199.20323242 96.29052734 183.56323242 96.29052734 Z M246.56323242 96.29052734 C247.20260742 103.46802734 247.84198242 110.64552734 248.50073242 118.04052734 C248.70045654 120.3012207 248.90018066 122.56191406 249.10595703 124.89111328 C249.26724537 126.68573224 249.4287691 128.48033008 249.59057617 130.27490234 C249.712453 131.66926514 249.712453 131.66926514 249.83679199 133.09179688 C249.91788208 133.98463379 249.99897217 134.8774707 250.08251953 135.79736328 C250.15135849 136.57013611 250.22019745 137.34290894 250.29112244 138.13909912 C250.56180053 140.62164362 250.56180053 140.62164362 251.56323242 144.29052734 C268.72323242 144.29052734 285.88323242 144.29052734 303.56323242 144.29052734 C305.21323242 128.45052734 306.86323242 112.61052734 308.56323242 96.29052734 C288.10323242 96.29052734 267.64323242 96.29052734 246.56323242 96.29052734 Z M325.56323242 96.29052734 C323.94944616 106.61404616 323.94944616 106.61404616 322.71166992 116.94677734 C322.58276367 118.23583984 322.45385742 119.52490234 322.32104492 120.85302734 C322.1947168 122.15240234 322.06838867 123.45177734 321.93823242 124.79052734 C321.80307506 126.13430345 321.66765938 127.4780536 321.53198242 128.82177734 C321.01868077 134.01764715 320.56323242 139.0640094 320.56323242 144.29052734 C334.09323242 144.29052734 347.62323242 144.29052734 361.56323242 144.29052734 C363.32166345 137.25680323 365.04046472 130.34500011 366.38745117 123.24365234 C366.52203735 122.54804199 366.65662354 121.85243164 366.79528809 121.13574219 C367.28402037 118.60469336 367.7670758 116.07255098 368.25073242 113.54052734 C369.89041992 105.00177734 369.89041992 105.00177734 371.56323242 96.29052734 C356.38323242 96.29052734 341.20323242 96.29052734 325.56323242 96.29052734 Z M388.56323242 96.29052734 C386.5540635 105.62200079 384.54911331 114.95410136 382.56323242 124.29052734 C382.27681885 125.6358252 382.27681885 125.6358252 381.98461914 127.00830078 C381.54627418 129.08023762 381.11669415 131.15402418 380.68823242 133.22802734 C380.46393555 134.30955078 380.23963867 135.39107422 380.00854492 136.50537109 C379.4316637 139.64332033 379.4316637 139.64332033 379.56323242 144.29052734 C392.10323242 144.29052734 404.64323242 144.29052734 417.56323242 144.29052734 C419.32166345 137.25680323 421.04046472 130.34500011 422.38745117 123.24365234 C422.52203735 122.54804199 422.65662354 121.85243164 422.79528809 121.13574219 C423.28402037 118.60469336 423.7670758 116.07255098 424.25073242 113.54052734 C425.89041992 105.00177734 425.89041992 105.00177734 427.56323242 96.29052734 C414.69323242 96.29052734 401.82323242 96.29052734 388.56323242 96.29052734 Z M145.56323242 160.29052734 C146.83857233 166.66722688 148.15719048 172.83904442 149.91088867 179.07177734 C150.12764755 179.85194214 150.34440643 180.63210693 150.56773376 181.43591309 C151.02064185 183.06306322 151.47528925 184.68973019 151.93164062 186.31591797 C152.63160253 188.81145575 153.32534984 191.30866241 154.01831055 193.80615234 C154.46130961 195.39479453 154.90465617 196.98333986 155.34838867 198.57177734 C155.55569107 199.31754028 155.76299347 200.06330322 155.97657776 200.83166504 C157.03195194 204.64913396 157.03195194 204.64913396 158.56323242 208.29052734 C168.13323242 208.29052734 177.70323242 208.29052734 187.56323242 208.29052734 C186.00905143 197.21998534 186.00905143 197.21998534 184.09057617 186.24755859 C183.96260147 185.58640549 183.83462677 184.92525238 183.70277405 184.24406433 C183.4380976 182.88056947 183.17179449 181.51738929 182.90380859 180.15454102 C182.49369609 178.06721491 182.08964782 175.97877556 181.6862793 173.89013672 C180.41806862 167.01677596 180.41806862 167.01677596 178.56323242 160.29052734 C167.67323242 160.29052734 156.78323242 160.29052734 145.56323242 160.29052734 Z M196.56323242 160.29052734 C197.19066613 167.19229817 197.86639264 173.71525269 199.19213867 180.45849609 C199.34609604 181.26418533 199.50005341 182.06987457 199.65867615 182.89997864 C200.14272077 185.42698193 200.63407243 187.95249595 201.12573242 190.47802734 C201.45890359 192.21035527 201.79158974 193.94277655 202.1237793 195.67529297 C202.93045395 199.8816688 203.74703617 204.08594458 204.56323242 208.29052734 C216.44323242 208.29052734 228.32323242 208.29052734 240.56323242 208.29052734 C239.59983107 195.97275293 238.63648311 183.65626929 237.50073242 171.35302734 C237.38205811 170.02331909 237.38205811 170.02331909 237.26098633 168.66674805 C236.9485441 164.34263514 236.9485441 164.34263514 235.56323242 160.29052734 C222.69323242 160.29052734 209.82323242 160.29052734 196.56323242 160.29052734 Z M252.56323242 160.29052734 C253.20260742 167.28240234 253.84198242 174.27427734 254.50073242 181.47802734 C254.70045654 183.67740967 254.90018066 185.87679199 255.10595703 188.14282227 C255.26728516 189.89389971 255.42881153 191.64495892 255.59057617 193.39599609 C255.67182739 194.29886353 255.75307861 195.20173096 255.83679199 196.13195801 C256.21879968 200.24181416 256.62284581 204.2618672 257.56323242 208.29052734 C263.09911775 208.3151751 268.63497142 208.3333623 274.17089844 208.34545898 C276.05566972 208.35049978 277.94043707 208.35733233 279.82519531 208.3659668 C282.52824878 208.37804351 285.23125073 208.38375803 287.93432617 208.38818359 C288.78224228 208.39334488 289.63015839 208.39850616 290.50376892 208.40382385 C292.52394311 208.40401929 294.54401176 208.35258945 296.56323242 208.29052734 C298.69839358 206.15536618 298.24843839 201.64897672 298.53588867 198.68896484 C298.6232579 197.81913971 298.71062714 196.94931458 298.80064392 196.0531311 C298.98513676 194.20555657 299.1674072 192.35775901 299.34765625 190.50976562 C299.62257905 187.69778086 299.90581999 184.8867273 300.19018555 182.07568359 C300.36842285 180.28016053 300.54617248 178.48458898 300.72338867 176.68896484 C300.80774673 175.85327972 300.8921048 175.0175946 300.97901917 174.15658569 C301.09430214 172.96097519 301.09430214 172.96097519 301.21191406 171.74121094 C301.31397911 170.70315811 301.31397911 170.70315811 301.41810608 169.64413452 C301.61001641 166.5318013 301.56323242 163.40877167 301.56323242 160.29052734 C285.39323242 160.29052734 269.22323242 160.29052734 252.56323242 160.29052734 Z M318.56323242 160.29052734 C317.90323242 166.53990234 317.24323242 172.78927734 316.56323242 179.22802734 C316.3544043 181.18216553 316.14557617 183.13630371 315.93041992 185.1496582 C315.76599011 186.72652424 315.60190532 188.30342631 315.43823242 189.88037109 C315.35186523 190.67640747 315.26549805 191.47244385 315.17651367 192.29260254 C315.09530273 193.08332153 315.0140918 193.87404053 314.93041992 194.6887207 C314.85936035 195.36156601 314.78830078 196.03441132 314.71508789 196.72764587 C314.48709402 200.57552346 314.56323242 204.43590115 314.56323242 208.29052734 C325.78323242 208.29052734 337.00323242 208.29052734 348.56323242 208.29052734 C350.28162742 203.14695334 350.28162742 203.14695334 351.5246582 197.96923828 C351.68467316 197.17531677 351.84468811 196.38139526 352.009552 195.56341553 C352.17421967 194.72570618 352.33888733 193.88799683 352.50854492 193.02490234 C352.68328339 192.15029358 352.85802185 191.27568481 353.03805542 190.37457275 C353.40455703 188.53604843 353.76919904 186.69715252 354.13208008 184.85791016 C354.68931071 182.03506492 355.25275599 179.21351292 355.81713867 176.39208984 C356.17297173 174.60309977 356.52845292 172.81403966 356.88354492 171.02490234 C357.05226105 170.17909607 357.22097717 169.33328979 357.39480591 168.46185303 C358.24785531 164.40722238 358.24785531 164.40722238 358.56323242 160.29052734 C345.36323242 160.29052734 332.16323242 160.29052734 318.56323242 160.29052734 Z M375.56323242 160.29052734 C374.27784216 166.48284394 372.99485711 172.67555774 371.71801758 178.86962891 C371.28291239 180.9766931 370.84639803 183.08346682 370.40844727 185.18994141 C369.77924974 188.21750864 369.15512475 191.2460838 368.53198242 194.27490234 C368.2366864 195.68760406 368.2366864 195.68760406 367.9354248 197.12884521 C367.75523804 198.00945618 367.57505127 198.89006714 367.3894043 199.79736328 C367.22952026 200.57013611 367.06963623 201.34290894 366.90490723 202.13909912 C366.45866751 204.5858775 366.45866751 204.5858775 366.56323242 208.29052734 C379.10323242 208.29052734 391.64323242 208.29052734 404.56323242 208.29052734 C406.28162742 203.14695334 406.28162742 203.14695334 407.5246582 197.96923828 C407.68467316 197.17531677 407.84468811 196.38139526 408.009552 195.56341553 C408.17421967 194.72570618 408.33888733 193.88799683 408.50854492 193.02490234 C408.68328339 192.15029358 408.85802185 191.27568481 409.03805542 190.37457275 C409.40455703 188.53604843 409.76919904 186.69715252 410.13208008 184.85791016 C410.68931071 182.03506492 411.25275599 179.21351292 411.81713867 176.39208984 C412.17297173 174.60309977 412.52845292 172.81403966 412.88354492 171.02490234 C413.05226105 170.17909607 413.22097717 169.33328979 413.39480591 168.46185303 C414.24785531 164.40722238 414.24785531 164.40722238 414.56323242 160.29052734 C401.69323242 160.29052734 388.82323242 160.29052734 375.56323242 160.29052734 Z M163.56323242 224.29052734 C165.09953055 232.16759321 165.09953055 232.16759321 167.07104492 239.86083984 C167.30968262 240.6885791 167.54832031 241.51631836 167.79418945 242.36914062 C168.08922363 243.37444824 168.38425781 244.37975586 168.68823242 245.41552734 C169.63698242 248.67427734 170.58573242 251.93302734 171.56323242 255.29052734 C179.48323242 254.96052734 187.40323242 254.63052734 195.56323242 254.29052734 C196.99738841 251.42221537 196.21368924 249.6063992 195.60229492 246.47802734 C195.37799805 245.32044922 195.15370117 244.16287109 194.92260742 242.97021484 C194.68026367 241.75591797 194.43791992 240.54162109 194.18823242 239.29052734 C193.95362305 238.07623047 193.71901367 236.86193359 193.47729492 235.61083984 C192.52365125 229.78972738 192.52365125 229.78972738 190.56323242 224.29052734 C181.65323242 224.29052734 172.74323242 224.29052734 163.56323242 224.29052734 Z M208.56323242 224.29052734 C209.11136176 230.52630466 209.86970364 236.6456267 211.06323242 242.79052734 C211.19342773 243.49177734 211.32362305 244.19302734 211.45776367 244.91552734 C212.16157367 248.71331455 212.16157367 248.71331455 213.56323242 252.29052734 C229.201023 252.68725052 229.201023 252.68725052 244.56323242 250.29052734 C244.25808159 246.14411825 243.94288731 241.99853416 243.62573242 237.85302734 C243.49521484 236.07702148 243.49521484 236.07702148 243.36206055 234.26513672 C243.23154297 232.57807617 243.23154297 232.57807617 243.09838867 230.85693359 C243.01983643 229.81480713 242.94128418 228.77268066 242.86035156 227.69897461 C242.82036363 225.34258839 242.82036363 225.34258839 241.56323242 224.29052734 C239.11492816 224.20208941 236.69502643 224.17523983 234.24682617 224.19287109 C233.51577164 224.19428604 232.7847171 224.19570099 232.0315094 224.19715881 C229.6878761 224.20277326 227.34433703 224.21532813 225.00073242 224.22802734 C223.41544734 224.23304049 221.83016077 224.23760371 220.24487305 224.24169922 C216.35095632 224.25274738 212.45711037 224.27002163 208.56323242 224.29052734 Z M259.56323242 224.29052734 C259.56323242 230.75022203 259.6544065 236.16734911 260.56323242 242.41552734 C260.74885742 243.71748047 260.93448242 245.01943359 261.12573242 246.36083984 C261.27010742 247.32763672 261.41448242 248.29443359 261.56323242 249.29052734 C265.39679334 249.15033009 269.23001675 249.00234447 273.06323242 248.85302734 C274.14088867 248.81371094 275.21854492 248.77439453 276.32885742 248.73388672 C277.38588867 248.69199219 278.44291992 248.65009766 279.53198242 248.60693359 C280.97734375 248.55194702 280.97734375 248.55194702 282.4519043 248.49584961 C286.16932247 248.25053035 289.86649731 247.75261923 293.56323242 247.29052734 C294.22323242 239.70052734 294.88323242 232.11052734 295.56323242 224.29052734 C283.68323242 224.29052734 271.80323242 224.29052734 259.56323242 224.29052734 Z M312.56323242 224.29052734 C310.40904142 237.92483557 310.40904142 237.92483557 310.56323242 246.29052734 C320.79323242 245.63052734 331.02323242 244.97052734 341.56323242 244.29052734 C344.63342572 233.03257078 344.63342572 233.03257078 345.56323242 224.29052734 C334.67323242 224.29052734 323.78323242 224.29052734 312.56323242 224.29052734 Z M362.56323242 224.29052734 C358.81011756 237.49097919 358.81011756 237.49097919 360.56323242 243.29052734 C364.68941302 243.02708068 368.81537145 242.76043549 372.94116211 242.4909668 C374.34149737 242.39994178 375.74188739 242.30975472 377.14233398 242.22045898 C387.87960305 241.5354758 387.87960305 241.5354758 398.56323242 240.29052734 C399.0672805 238.18732671 399.5663375 236.08292943 400.06323242 233.97802734 C400.34166992 232.80626953 400.62010742 231.63451172 400.90698242 230.42724609 C401.66562326 227.3352289 401.66562326 227.3352289 401.56323242 224.29052734 C388.69323242 224.29052734 375.82323242 224.29052734 362.56323242 224.29052734 Z " fill="#000000" transform="translate(42.436767578125,31.70947265625)"/>
<path d="M0 0 C4.1994942 -0.04597986 8.39811065 -0.08578332 12.59765625 -0.10986328 C14.02542078 -0.11990427 15.45316483 -0.13353981 16.88085938 -0.15087891 C18.93624941 -0.17521152 20.99136692 -0.18650202 23.046875 -0.1953125 C24.28276367 -0.20578613 25.51865234 -0.21625977 26.79199219 -0.22705078 C29.86662287 -0.00943993 31.497414 0.26004492 34 2 C35.88331803 4.82497705 36.60237225 6.66678778 37.48046875 9.8828125 C37.75375 10.8720874 38.02703125 11.8613623 38.30859375 12.88061523 C38.74365234 14.48658569 38.74365234 14.48658569 39.1875 16.125 C39.81621709 18.4102083 40.44512864 20.69536311 41.07421875 22.98046875 C41.39438965 24.15013184 41.71456055 25.31979492 42.04443359 26.52490234 C43.22356668 30.81304246 44.42902621 35.09347507 45.63623047 39.3737793 C48.3505993 49.00142611 50.9854713 58.64722332 53.5625 68.3125 C55.81362312 76.74300588 58.18723724 85.11939172 60.73291016 93.46533203 C63.69140137 103.19613185 66.38861986 112.99933047 69.10888672 122.79882812 C69.98486761 125.94563947 70.86797987 129.09035039 71.75390625 132.234375 C74.75996549 142.90932994 77.70536413 153.59666717 80.5625 164.3125 C82.81362312 172.74300588 85.18723724 181.11939172 87.73291016 189.46533203 C90.04951954 197.08491261 92.23843662 204.73876708 94.31103516 212.4284668 C95.68313694 217.48956657 97.11731698 222.44606552 98.96484375 227.35546875 C105.19825863 244.83606387 104.81367211 262.41715755 104.82568359 280.78271484 C104.82782364 281.88482803 104.82996368 282.98694122 104.83216858 284.12245178 C104.83207891 286.21821364 104.82166596 288.3140076 104.79954529 290.40965271 C104.79713333 291.3505928 104.79472137 292.2915329 104.79223633 293.26098633 C104.78444656 294.08270828 104.7766568 294.90443024 104.76863098 295.75105286 C105.02816211 298.27374065 105.65308285 299.86057208 107 302 C109.36877108 303.18438554 110.7905607 303.12693417 113.43320179 303.13028526 C114.3711338 303.13390961 115.30906582 303.13753396 116.27542001 303.14126813 C117.31284882 303.14019988 118.35027763 303.13913163 119.41914368 303.13803101 C120.51580028 303.14085229 121.61245689 303.14367357 122.74234551 303.14658034 C126.44192552 303.15495832 130.14147572 303.15626731 133.84106445 303.15771484 C136.48346159 303.16238068 139.12585464 303.16745701 141.76824951 303.17311096 C147.47094368 303.18464734 153.17363489 303.19288605 158.87633705 303.19923019 C167.88821493 303.20954569 176.9000558 303.23010654 185.91191101 303.25234985 C188.99363029 303.25982993 192.07534972 303.26724361 195.15706921 303.27463722 C195.92727232 303.27648779 196.69747543 303.27833835 197.49101803 303.280245 C206.26248173 303.30118086 215.03394951 303.32000488 223.80541992 303.33789062 C225.00846915 303.3403479 225.00846915 303.3403479 226.2358224 303.34285481 C239.23326281 303.36914022 252.23070606 303.3877829 265.22816179 303.40448253 C278.5658191 303.42189632 291.90342056 303.45073436 305.24103326 303.4893719 C313.47130741 303.51278647 321.70149051 303.52676777 329.93179824 303.52869953 C335.57164036 303.53080711 341.21139189 303.54372118 346.85119335 303.56517886 C350.10649375 303.5772201 353.36157777 303.58272346 356.61690331 303.57846642 C360.14476908 303.5745891 363.67209984 303.58897064 367.1999054 303.60800171 C368.23064204 303.60247201 369.26137869 303.59694232 370.32334977 303.59124506 C379.07648844 303.67305942 379.07648844 303.67305942 383 307 C384.40457737 309.80915474 384.24895157 311.88810534 384 315 C382.22015595 318.1359157 381.47691793 318.84102736 378 320 C376.36928038 320.09073714 374.73506098 320.12375272 373.10181904 320.12304783 C372.08566118 320.12503888 371.06950331 320.12702993 370.02255279 320.12908131 C368.90291631 320.12616847 367.78327983 320.12325563 366.62971497 320.12025452 C365.44292151 320.12110894 364.25612805 320.12196337 363.03337115 320.12284368 C359.73367078 320.12420887 356.43402937 320.12107271 353.13433611 320.11606562 C349.5781184 320.1117557 346.02190257 320.11320793 342.46568298 320.1139679 C336.30244831 320.11449279 330.13922421 320.11134962 323.9759922 320.10573006 C315.06494353 320.09761035 306.15389997 320.09499935 297.242848 320.09374207 C282.78600059 320.09155229 268.32915881 320.08489421 253.87231445 320.07543945 C239.82706734 320.06626342 225.78182177 320.05918352 211.73657227 320.05493164 C210.87113172 320.05466892 210.00569117 320.05440619 209.11402515 320.05413551 C204.7724564 320.05283049 200.43088764 320.05156678 196.08931887 320.05032361 C160.05954193 320.03995331 124.02977141 320.022337 88 320 C87.99453156 318.61177032 87.99453156 318.61177032 87.98895264 317.19549561 C87.95091869 308.42820113 87.89389266 299.66127283 87.81609726 290.89423752 C87.7767665 286.38813679 87.744508 281.88222726 87.72900391 277.37597656 C87.71374165 273.01851687 87.67912925 268.66158337 87.63169098 264.30435944 C87.61697504 262.65083671 87.60896467 260.99723881 87.60811615 259.34365082 C87.59788871 249.3967808 86.67837459 241.36646098 83 232 C81.81639975 227.9164067 80.75780244 223.8021061 79.6875 219.6875 C77.45383109 211.23630249 75.09598599 202.84700357 72.5 194.5 C69.63774896 185.28820352 67.09108827 176.01630253 64.625 166.69140625 C62.73028377 159.57776185 60.68403849 152.52987388 58.5 145.5 C55.63805169 136.28810386 53.09109197 127.01631651 50.625 117.69140625 C48.73028377 110.57776185 46.68403849 103.52987388 44.5 96.5 C41.97690174 88.37877748 39.67427439 80.2214181 37.5 72 C34.50548018 60.67768585 31.19701026 49.47424976 27.69677734 38.29858398 C27.07506496 36.2476302 26.52499021 34.19148764 25.98828125 32.1171875 C24.21538728 26.52521362 20.70365689 22.52987414 15.59765625 19.640625 C10.44880218 17.45097365 5.56328138 16.41209492 0 16 C0 10.72 0 5.44 0 0 Z " fill="#D8D9DB" transform="translate(96,48)"/>
<path d="M0 0 C8.69932129 5.39652812 15.18981928 13.12813177 18.11328125 22.984375 C21.00179735 35.45479623 19.79250345 45.45273538 13.4296875 56.6796875 C7.36691928 65.3978542 -0.63331475 71.29726686 -10.9453125 74.0546875 C-23.75013391 76.22306189 -34.25636351 74.34982796 -44.9453125 66.8046875 C-53.6994376 59.68515007 -59.13192805 50.94414403 -60.5703125 39.6796875 C-61.72665535 27.68455763 -58.79996974 17.81092421 -51.1640625 8.421875 C-37.39711167 -6.62729183 -18.15717891 -9.32693993 0 0 Z " fill="#4D5457" transform="translate(460.5703125,389.3203125)"/>
<path d="M0 0 C8.69932129 5.39652812 15.18981928 13.12813177 18.11328125 22.984375 C21.00179735 35.45479623 19.79250345 45.45273538 13.4296875 56.6796875 C7.36691928 65.3978542 -0.63331475 71.29726686 -10.9453125 74.0546875 C-23.75013391 76.22306189 -34.25636351 74.34982796 -44.9453125 66.8046875 C-53.6994376 59.68515007 -59.13192805 50.94414403 -60.5703125 39.6796875 C-61.72665535 27.68455763 -58.79996974 17.81092421 -51.1640625 8.421875 C-37.39711167 -6.62729183 -18.15717891 -9.32693993 0 0 Z " fill="#4D5457" transform="translate(212.5703125,389.3203125)"/>
<path d="M0 0 C5.82339361 3.26406776 9.81900149 7.72569817 13.1875 13.4375 C14.75451654 20.57613092 14.04255032 27.44967982 10.75 34 C6.32128075 40.40822254 1.4694294 44.35091379 -6.25 46 C-13.10119085 46.71075279 -18.64248792 46.19441903 -24.25 42 C-31.06570387 35.74018687 -34.1427882 30.36635124 -34.625 21.0625 C-34.44055886 14.64588969 -32.5703836 10.44159766 -28.15625 5.796875 C-19.78982757 -1.95600978 -10.90827022 -4.94619276 0 0 Z " fill="#010101" transform="translate(202.25,402)"/>
<path d="M0 0 C5.82289589 3.56581247 10.32431986 8.95298532 12.3984375 15.46875 C13.33942891 22.96001927 12.25369065 29.46706945 7.8515625 35.63671875 C3.30412545 41.16004384 -1.32840628 44.62303416 -8.6015625 45.46875 C-15.1801858 46.10130993 -20.17451416 45.41468943 -25.6015625 41.46875 C-31.86965894 35.67798355 -35.65643918 29.71201657 -36.0390625 21.03125 C-35.80212912 14.36066397 -34.11051546 10.10408679 -29.5078125 5.26953125 C-20.50157066 -3.09126326 -11.4863017 -5.07281463 0 0 Z " fill="#010101" transform="translate(451.6015625,402.53125)"/>
<path d="M0 0 C0.94735519 0.00707474 1.89471039 0.01414948 2.87077332 0.0214386 C5.88731896 0.04935791 8.90198715 0.1120921 11.91796875 0.17578125 C13.96677001 0.20086729 16.01560045 0.22367992 18.06445312 0.24414062 C23.07884496 0.29917666 28.09183889 0.38543269 33.10546875 0.48828125 C33.10546875 5.76828125 33.10546875 11.04828125 33.10546875 16.48828125 C27.07323672 16.6120252 21.0417459 16.70268938 15.00854492 16.76293945 C12.95698169 16.78805931 10.90550774 16.82216161 8.85424805 16.86547852 C5.90260784 16.92624127 2.95215225 16.95451617 0 16.9765625 C-0.91476608 17.00236893 -1.82953217 17.02817535 -2.77201843 17.05476379 C-7.30734321 17.05675422 -9.26161818 16.96985318 -12.97387695 14.14526367 C-14.89453125 11.48828125 -14.89453125 11.48828125 -15.51953125 8.48828125 C-13.73269844 -0.08851622 -7.3153829 -0.20637396 0 0 Z " fill="#E9413E" transform="translate(46.89453125,47.51171875)"/>
<path d="M0 0 C4.0743356 0.84881992 5.54405875 2.30225596 8 5.625 C8.625 8.625 8.625 8.625 8 11.625 C5.54405875 14.94774404 4.0743356 16.40118008 0 17.25 C-4.0743356 16.40118008 -5.54405875 14.94774404 -8 11.625 C-8.625 8.625 -8.625 8.625 -8 5.625 C-5.54405875 2.30225596 -4.0743356 0.84881992 0 0 Z " fill="#DEE3E7" transform="translate(192,415.375)"/>
<path d="M0 0 C2.66589042 0.54323805 3.75768995 0.96351964 5.875 2.75 C7.21538506 5.84964046 7.42167869 7.71409302 6.875 11.0625 C4.41905875 14.38524404 2.9493356 15.83868008 -1.125 16.6875 C-5.1993356 15.83868008 -6.66905875 14.38524404 -9.125 11.0625 C-9.75 8.0625 -9.75 8.0625 -9.125 5.0625 C-6.50620524 1.2161452 -4.62486834 -0.35838463 0 0 Z " fill="#DEE3E7" transform="translate(441.125,415.9375)"/>
</svg>
